<svg width="80" height="32" viewBox="0 0 80 32" fill="none" xmlns="http://www.w3.org/2000/svg">
<rect width="32" height="32" rx="16" fill="white"/>
<circle cx="16" cy="16" r="15.5" fill="#9327FF" stroke="white"/>
<path d="M9.53383 20.1904H8.42588L11.6304 11.4632H12.7213L15.9259 20.1904H14.8179L12.21 12.8438H12.1418L9.53383 20.1904ZM9.94292 16.7813H14.4088V17.7188H9.94292V16.7813ZM22.058 13.645C22.0068 13.2132 21.7995 12.8779 21.4358 12.6393C21.0722 12.4007 20.6262 12.2813 20.0978 12.2813C19.7114 12.2813 19.3733 12.3438 19.0835 12.4688C18.7966 12.5938 18.5722 12.7657 18.4103 12.9845C18.2512 13.2032 18.1716 13.4518 18.1716 13.7302C18.1716 13.9632 18.227 14.1634 18.3378 14.3311C18.4514 14.4958 18.5963 14.6336 18.7725 14.7444C18.9486 14.8524 19.1333 14.9418 19.3264 15.0129C19.5196 15.0811 19.6972 15.1365 19.8591 15.1791L20.7455 15.4177C20.9728 15.4774 21.2256 15.5597 21.504 15.6649C21.7853 15.77 22.0537 15.9134 22.3094 16.0953C22.5679 16.2742 22.781 16.5043 22.9486 16.7856C23.1162 17.0669 23.2 17.412 23.2 17.8211C23.2 18.2927 23.0764 18.7188 22.8293 19.0995C22.585 19.4802 22.227 19.7828 21.7554 20.0072C21.2867 20.2316 20.7171 20.3438 20.0466 20.3438C19.4216 20.3438 18.8804 20.243 18.423 20.0413C17.9685 19.8396 17.6105 19.5583 17.3492 19.1975C17.0907 18.8367 16.9443 18.4177 16.9103 17.9404H18.0012C18.0296 18.27 18.1404 18.5427 18.3335 18.7586C18.5296 18.9717 18.7767 19.1308 19.075 19.2359C19.3762 19.3382 19.7 19.3893 20.0466 19.3893C20.45 19.3893 20.8122 19.324 21.1333 19.1933C21.4543 19.0597 21.7085 18.8751 21.896 18.6393C22.0835 18.4007 22.1773 18.1222 22.1773 17.8041C22.1773 17.5143 22.0963 17.2785 21.9344 17.0967C21.7725 16.9149 21.5594 16.7671 21.2952 16.6535C21.031 16.5399 20.7455 16.4404 20.4387 16.3552L19.3648 16.0484C18.683 15.8524 18.1432 15.5725 17.7455 15.2089C17.3478 14.8453 17.1489 14.3694 17.1489 13.7813C17.1489 13.2927 17.281 12.8666 17.5452 12.5029C17.8122 12.1365 18.1702 11.8524 18.6191 11.6507C19.0708 11.4461 19.575 11.3438 20.1318 11.3438C20.6943 11.3438 21.1943 11.4447 21.6318 11.6464C22.0693 11.8453 22.4159 12.118 22.6716 12.4646C22.9301 12.8112 23.0665 13.2046 23.0807 13.645H22.058Z" fill="white"/>
<rect x="24" width="32" height="32" rx="16" fill="white"/>
<circle cx="40" cy="16" r="15.5" fill="#FC71FF" stroke="white"/>
<path d="M35.8515 20.1904H33.1583V11.4632H35.9708C36.8174 11.4632 37.5418 11.6379 38.1441 11.9873C38.7464 12.3339 39.208 12.8325 39.529 13.483C39.8501 14.1308 40.0106 14.9063 40.0106 15.8097C40.0106 16.7188 39.8486 17.5015 39.5248 18.1578C39.2009 18.8112 38.7293 19.314 38.11 19.6663C37.4907 20.0157 36.7378 20.1904 35.8515 20.1904ZM34.2151 19.2529H35.7833C36.5049 19.2529 37.1029 19.1137 37.5773 18.8353C38.0518 18.5569 38.4055 18.1606 38.6384 17.6464C38.8714 17.1322 38.9878 16.52 38.9878 15.8097C38.9878 15.1052 38.8728 14.4987 38.6427 13.9901C38.4126 13.4788 38.0688 13.0867 37.6114 12.814C37.154 12.5384 36.5844 12.4007 35.9026 12.4007H34.2151V19.2529ZM41.7833 20.1904V11.4632H47.0503V12.4007H42.8401V15.3495H46.7776V16.287H42.8401V19.2529H47.1185V20.1904H41.7833Z" fill="white"/>
<rect x="48" width="32" height="32" rx="16" fill="white"/>
<circle cx="64" cy="16" r="15.5" fill="#FFBB2B" stroke="white"/>
<path d="M57.9493 20.1904V11.4632H63.2164V12.4007H59.0061V15.3495H62.9436V16.287H59.0061V19.2529H63.2845V20.1904H57.9493ZM65.1212 20.1904V11.4632H70.3541V12.4007H66.178V15.3495H69.9621V16.287H66.178V20.1904H65.1212Z" fill="white"/>
</svg>
