<svg width="220" height="16" viewBox="0 0 220 16" fill="none" xmlns="http://www.w3.org/2000/svg">
<rect y="4" width="128" height="8" rx="4" fill="#F4F4F4"/>
<path d="M142.75 11.1193C142.108 11.1193 141.561 10.9446 141.109 10.5952C140.658 10.2429 140.313 9.73295 140.074 9.06534C139.835 8.39489 139.716 7.58523 139.716 6.63636C139.716 5.69318 139.835 4.88778 140.074 4.22017C140.315 3.54972 140.662 3.03835 141.114 2.68608C141.568 2.33097 142.114 2.15341 142.75 2.15341C143.386 2.15341 143.93 2.33097 144.382 2.68608C144.837 3.03835 145.183 3.54972 145.422 4.22017C145.663 4.88778 145.784 5.69318 145.784 6.63636C145.784 7.58523 145.665 8.39489 145.426 9.06534C145.188 9.73295 144.842 10.2429 144.391 10.5952C143.939 10.9446 143.392 11.1193 142.75 11.1193ZM142.75 10.1818C143.386 10.1818 143.881 9.875 144.233 9.26136C144.585 8.64773 144.761 7.77273 144.761 6.63636C144.761 5.88068 144.68 5.23722 144.518 4.70597C144.359 4.17472 144.129 3.76989 143.828 3.49148C143.53 3.21307 143.17 3.07386 142.75 3.07386C142.119 3.07386 141.626 3.38494 141.271 4.0071C140.916 4.62642 140.739 5.50284 140.739 6.63636C140.739 7.39205 140.818 8.03409 140.977 8.5625C141.136 9.09091 141.365 9.4929 141.663 9.76847C141.964 10.044 142.327 10.1818 142.75 10.1818ZM150.506 1.86364L147.693 12.3125H146.773L149.585 1.86364H150.506ZM151.681 11V10.233L154.561 7.07955C154.9 6.71023 155.178 6.3892 155.397 6.11648C155.615 5.84091 155.777 5.58239 155.882 5.34091C155.99 5.09659 156.044 4.84091 156.044 4.57386C156.044 4.26705 155.971 4.00142 155.823 3.77699C155.678 3.55256 155.479 3.37926 155.226 3.2571C154.973 3.13494 154.689 3.07386 154.374 3.07386C154.039 3.07386 153.746 3.14347 153.496 3.28267C153.249 3.41903 153.057 3.6108 152.921 3.85795C152.787 4.10511 152.721 4.39489 152.721 4.72727H151.715C151.715 4.21591 151.833 3.76705 152.069 3.38068C152.304 2.99432 152.625 2.69318 153.032 2.47727C153.441 2.26136 153.9 2.15341 154.408 2.15341C154.919 2.15341 155.373 2.26136 155.767 2.47727C156.162 2.69318 156.472 2.98437 156.696 3.35085C156.921 3.71733 157.033 4.125 157.033 4.57386C157.033 4.89489 156.975 5.20881 156.858 5.51562C156.745 5.8196 156.546 6.15909 156.262 6.53409C155.98 6.90625 155.59 7.3608 155.09 7.89773L153.13 9.99432V10.0625H157.186V11H151.681ZM167.248 4.45455C167.196 4.02273 166.989 3.6875 166.625 3.44886C166.262 3.21023 165.816 3.09091 165.287 3.09091C164.901 3.09091 164.563 3.15341 164.273 3.27841C163.986 3.40341 163.762 3.57528 163.6 3.79403C163.441 4.01278 163.361 4.26136 163.361 4.53977C163.361 4.77273 163.417 4.97301 163.527 5.14062C163.641 5.3054 163.786 5.44318 163.962 5.55398C164.138 5.66193 164.323 5.75142 164.516 5.82244C164.709 5.89062 164.887 5.94602 165.049 5.98864L165.935 6.22727C166.162 6.28693 166.415 6.36932 166.694 6.47443C166.975 6.57955 167.243 6.72301 167.499 6.90483C167.757 7.08381 167.971 7.31392 168.138 7.59517C168.306 7.87642 168.39 8.22159 168.39 8.63068C168.39 9.10227 168.266 9.52841 168.019 9.90909C167.775 10.2898 167.417 10.5923 166.945 10.8168C166.476 11.0412 165.907 11.1534 165.236 11.1534C164.611 11.1534 164.07 11.0526 163.613 10.8509C163.158 10.6491 162.8 10.3679 162.539 10.0071C162.28 9.64631 162.134 9.22727 162.1 8.75H163.191C163.219 9.07955 163.33 9.35227 163.523 9.56818C163.719 9.78125 163.966 9.94034 164.265 10.0455C164.566 10.1477 164.89 10.1989 165.236 10.1989C165.64 10.1989 166.002 10.1335 166.323 10.0028C166.644 9.86932 166.898 9.68466 167.086 9.44886C167.273 9.21023 167.367 8.93182 167.367 8.61364C167.367 8.32386 167.286 8.08807 167.124 7.90625C166.962 7.72443 166.749 7.5767 166.485 7.46307C166.221 7.34943 165.935 7.25 165.628 7.16477L164.554 6.85795C163.873 6.66193 163.333 6.3821 162.935 6.01847C162.537 5.65483 162.338 5.17898 162.338 4.59091C162.338 4.10227 162.471 3.67614 162.735 3.3125C163.002 2.94602 163.36 2.66193 163.809 2.46023C164.26 2.25568 164.765 2.15341 165.321 2.15341C165.884 2.15341 166.384 2.25426 166.821 2.45597C167.259 2.65483 167.605 2.92756 167.861 3.27415C168.12 3.62074 168.256 4.0142 168.27 4.45455H167.248ZM174.116 8.32386V4.45455H175.121V11H174.116V9.89205H174.048C173.894 10.2244 173.656 10.5071 173.332 10.7401C173.008 10.9702 172.599 11.0852 172.104 11.0852C171.695 11.0852 171.332 10.9957 171.013 10.8168C170.695 10.6349 170.445 10.3622 170.263 9.99858C170.082 9.6321 169.991 9.17045 169.991 8.61364V4.45455H170.996V8.54545C170.996 9.02273 171.13 9.40341 171.397 9.6875C171.667 9.97159 172.011 10.1136 172.428 10.1136C172.678 10.1136 172.933 10.0497 173.191 9.92188C173.452 9.79403 173.671 9.59801 173.847 9.33381C174.026 9.0696 174.116 8.73295 174.116 8.32386ZM177.1 11V2.27273H178.105V5.49432H178.191C178.265 5.38068 178.367 5.2358 178.498 5.05966C178.631 4.88068 178.821 4.72159 179.069 4.58239C179.319 4.44034 179.657 4.36932 180.083 4.36932C180.634 4.36932 181.12 4.5071 181.54 4.78267C181.961 5.05824 182.289 5.44886 182.525 5.95455C182.76 6.46023 182.878 7.05682 182.878 7.74432C182.878 8.4375 182.76 9.03835 182.525 9.54688C182.289 10.0526 181.962 10.4446 181.544 10.723C181.127 10.9986 180.645 11.1364 180.1 11.1364C179.679 11.1364 179.343 11.0668 179.09 10.9276C178.837 10.7855 178.642 10.625 178.506 10.446C178.37 10.2642 178.265 10.1136 178.191 9.99432H178.071V11H177.1ZM178.088 7.72727C178.088 8.22159 178.161 8.65767 178.306 9.03551C178.451 9.41051 178.662 9.70455 178.941 9.91761C179.219 10.1278 179.56 10.233 179.963 10.233C180.384 10.233 180.735 10.1222 181.016 9.90057C181.3 9.67614 181.513 9.375 181.655 8.99716C181.8 8.61648 181.873 8.19318 181.873 7.72727C181.873 7.26705 181.801 6.85227 181.659 6.48295C181.52 6.1108 181.309 5.81676 181.025 5.60085C180.743 5.3821 180.39 5.27273 179.963 5.27273C179.554 5.27273 179.211 5.37642 178.932 5.58381C178.654 5.78835 178.444 6.07528 178.301 6.4446C178.159 6.81108 178.088 7.23864 178.088 7.72727ZM187.263 4.45455V5.30682H183.871V4.45455H187.263ZM184.86 2.88636H185.865V9.125C185.865 9.40909 185.907 9.62216 185.989 9.7642C186.074 9.90341 186.182 9.99716 186.313 10.0455C186.446 10.0909 186.587 10.1136 186.735 10.1136C186.846 10.1136 186.936 10.108 187.007 10.0966C187.078 10.0824 187.135 10.071 187.178 10.0625L187.382 10.9659C187.314 10.9915 187.219 11.017 187.097 11.0426C186.975 11.071 186.82 11.0852 186.632 11.0852C186.348 11.0852 186.07 11.0241 185.797 10.902C185.527 10.7798 185.303 10.5938 185.124 10.3438C184.948 10.0938 184.86 9.77841 184.86 9.39773V2.88636ZM190.702 11.1534C190.287 11.1534 189.911 11.0753 189.573 10.919C189.235 10.7599 188.966 10.5312 188.767 10.233C188.569 9.93182 188.469 9.56818 188.469 9.14205C188.469 8.76705 188.543 8.46307 188.691 8.23011C188.838 7.99432 189.036 7.80966 189.283 7.67614C189.53 7.54261 189.803 7.44318 190.101 7.37784C190.402 7.30966 190.705 7.25568 191.009 7.21591C191.407 7.16477 191.729 7.12642 191.976 7.10085C192.226 7.07244 192.408 7.02557 192.522 6.96023C192.638 6.89489 192.696 6.78125 192.696 6.61932V6.58523C192.696 6.16477 192.581 5.83807 192.351 5.60511C192.124 5.37216 191.779 5.25568 191.316 5.25568C190.836 5.25568 190.459 5.3608 190.186 5.57102C189.914 5.78125 189.722 6.00568 189.611 6.24432L188.657 5.90341C188.827 5.50568 189.054 5.19602 189.338 4.97443C189.625 4.75 189.938 4.59375 190.276 4.50568C190.617 4.41477 190.952 4.36932 191.282 4.36932C191.492 4.36932 191.733 4.39489 192.006 4.44602C192.282 4.49432 192.547 4.59517 192.803 4.74858C193.061 4.90199 193.276 5.13352 193.446 5.44318C193.617 5.75284 193.702 6.16761 193.702 6.6875V11H192.696V10.1136H192.645C192.577 10.2557 192.463 10.4077 192.304 10.5696C192.145 10.7315 191.934 10.8693 191.669 10.983C191.405 11.0966 191.083 11.1534 190.702 11.1534ZM190.855 10.25C191.253 10.25 191.588 10.1719 191.861 10.0156C192.137 9.85938 192.344 9.65767 192.483 9.41051C192.625 9.16335 192.696 8.90341 192.696 8.63068V7.71023C192.654 7.76136 192.56 7.80824 192.415 7.85085C192.273 7.89062 192.108 7.92614 191.921 7.95739C191.736 7.9858 191.556 8.01136 191.38 8.03409C191.206 8.05398 191.066 8.07102 190.958 8.08523C190.696 8.11932 190.452 8.17472 190.225 8.25142C190 8.32528 189.819 8.4375 189.679 8.58807C189.543 8.7358 189.475 8.9375 189.475 9.19318C189.475 9.54261 189.604 9.80682 189.863 9.9858C190.124 10.1619 190.455 10.25 190.855 10.25ZM200.174 5.92045L199.271 6.17614C199.214 6.02557 199.13 5.87926 199.019 5.73722C198.911 5.59233 198.763 5.47301 198.576 5.37926C198.388 5.28551 198.148 5.23864 197.856 5.23864C197.455 5.23864 197.121 5.33097 196.854 5.51562C196.59 5.69744 196.458 5.92898 196.458 6.21023C196.458 6.46023 196.549 6.65767 196.731 6.80256C196.913 6.94744 197.197 7.06818 197.583 7.16477L198.555 7.40341C199.14 7.54545 199.576 7.76278 199.863 8.0554C200.15 8.34517 200.293 8.71875 200.293 9.17614C200.293 9.55114 200.185 9.88636 199.969 10.1818C199.756 10.4773 199.458 10.7102 199.075 10.8807C198.691 11.0511 198.245 11.1364 197.737 11.1364C197.069 11.1364 196.516 10.9915 196.079 10.7017C195.641 10.4119 195.364 9.98864 195.248 9.43182L196.202 9.19318C196.293 9.54545 196.465 9.80966 196.718 9.9858C196.974 10.1619 197.308 10.25 197.719 10.25C198.188 10.25 198.56 10.1506 198.836 9.9517C199.114 9.75 199.254 9.50852 199.254 9.22727C199.254 9 199.174 8.80966 199.015 8.65625C198.856 8.5 198.612 8.38352 198.282 8.30682L197.191 8.05114C196.592 7.90909 196.151 7.68892 195.87 7.39062C195.592 7.08949 195.452 6.71307 195.452 6.26136C195.452 5.89205 195.556 5.56534 195.763 5.28125C195.974 4.99716 196.259 4.77415 196.62 4.61222C196.984 4.45028 197.396 4.36932 197.856 4.36932C198.504 4.36932 199.012 4.51136 199.381 4.79545C199.754 5.07955 200.018 5.45455 200.174 5.92045ZM202.745 8.61364L202.728 7.36932H202.932L205.796 4.45455H207.04L203.989 7.53977H203.904L202.745 8.61364ZM201.807 11V2.27273H202.813V11H201.807ZM205.966 11L203.409 7.76136L204.125 7.0625L207.245 11H205.966ZM212.971 5.92045L212.067 6.17614C212.011 6.02557 211.927 5.87926 211.816 5.73722C211.708 5.59233 211.56 5.47301 211.373 5.37926C211.185 5.28551 210.945 5.23864 210.653 5.23864C210.252 5.23864 209.918 5.33097 209.651 5.51562C209.387 5.69744 209.255 5.92898 209.255 6.21023C209.255 6.46023 209.346 6.65767 209.528 6.80256C209.71 6.94744 209.994 7.06818 210.38 7.16477L211.352 7.40341C211.937 7.54545 212.373 7.76278 212.66 8.0554C212.947 8.34517 213.09 8.71875 213.09 9.17614C213.09 9.55114 212.982 9.88636 212.766 10.1818C212.553 10.4773 212.255 10.7102 211.871 10.8807C211.488 11.0511 211.042 11.1364 210.533 11.1364C209.866 11.1364 209.313 10.9915 208.876 10.7017C208.438 10.4119 208.161 9.98864 208.045 9.43182L208.999 9.19318C209.09 9.54545 209.262 9.80966 209.515 9.9858C209.771 10.1619 210.104 10.25 210.516 10.25C210.985 10.25 211.357 10.1506 211.633 9.9517C211.911 9.75 212.05 9.50852 212.05 9.22727C212.05 9 211.971 8.80966 211.812 8.65625C211.653 8.5 211.408 8.38352 211.079 8.30682L209.988 8.05114C209.388 7.90909 208.948 7.68892 208.667 7.39062C208.388 7.08949 208.249 6.71307 208.249 6.26136C208.249 5.89205 208.353 5.56534 208.56 5.28125C208.771 4.99716 209.056 4.77415 209.417 4.61222C209.781 4.45028 210.192 4.36932 210.653 4.36932C211.3 4.36932 211.809 4.51136 212.178 4.79545C212.55 5.07955 212.815 5.45455 212.971 5.92045Z" fill="black"/>
</svg>
